<svg xmlns="http://www.w3.org/2000/svg" width="51.587" height="51.658" viewBox="0 0 51.587 51.658">
  <g id="Group_5500" data-name="Group 5500" transform="translate(-120.042 -119)">
    <rect id="Rectangle_1" data-name="Rectangle 1" width="3.144" height="8.675" transform="translate(144.288 119)" fill="#fff"/>
    <rect id="Rectangle_2" data-name="Rectangle 2" width="8.675" height="3.144" transform="translate(149.184 127.934) rotate(-73.636)" fill="#fff"/>
    <rect id="Rectangle_3" data-name="Rectangle 3" width="8.675" height="3.144" transform="translate(153.808 129.561) rotate(-57.273)" fill="#fff"/>
    <rect id="Rectangle_4" data-name="Rectangle 4" width="8.675" height="3.144" transform="matrix(0.756, -0.655, 0.655, 0.756, 157.787, 132.426)" fill="#fff"/>
    <rect id="Rectangle_5" data-name="Rectangle 5" width="8.675" height="3.144" transform="translate(160.797 136.295) rotate(-24.545)" fill="#fff"/>
    <rect id="Rectangle_6" data-name="Rectangle 6" width="8.675" height="3.144" transform="translate(162.595 140.856) rotate(-8.182)" fill="#fff"/>
    <rect id="Rectangle_7" data-name="Rectangle 7" width="3.144" height="8.675" transform="translate(162.588 148.851) rotate(-81.818)" fill="#fff"/>
    <rect id="Rectangle_8" data-name="Rectangle 8" width="3.144" height="8.675" transform="translate(160.776 153.408) rotate(-65.455)" fill="#fff"/>
    <rect id="Rectangle_9" data-name="Rectangle 9" width="3.144" height="8.675" transform="matrix(0.655, -0.756, 0.756, 0.655, 157.754, 157.27)" fill="#fff"/>
    <rect id="Rectangle_10" data-name="Rectangle 10" width="3.144" height="8.675" transform="translate(153.767 160.124) rotate(-32.727)" fill="#fff"/>
    <rect id="Rectangle_11" data-name="Rectangle 11" width="3.144" height="8.675" transform="translate(149.136 161.739) rotate(-16.364)" fill="#fff"/>
    <rect id="Rectangle_12" data-name="Rectangle 12" width="3.144" height="8.675" transform="translate(144.239 161.984)" fill="#fff"/>
    <rect id="Rectangle_13" data-name="Rectangle 13" width="8.675" height="3.144" transform="translate(137.026 169.162) rotate(-73.636)" fill="#fff"/>
    <rect id="Rectangle_14" data-name="Rectangle 14" width="8.675" height="3.144" transform="translate(130.528 165.695) rotate(-57.273)" fill="#fff"/>
    <rect id="Rectangle_15" data-name="Rectangle 15" width="8.675" height="3.144" transform="matrix(0.756, -0.655, 0.655, 0.756, 125.269, 160.537)" fill="#fff"/>
    <rect id="Rectangle_16" data-name="Rectangle 16" width="8.675" height="3.144" transform="translate(121.677 154.106) rotate(-24.545)" fill="#fff"/>
    <rect id="Rectangle_17" data-name="Rectangle 17" width="8.675" height="3.144" transform="translate(120.042 146.924) rotate(-8.182)" fill="#fff"/>
    <rect id="Rectangle_18" data-name="Rectangle 18" width="3.144" height="8.675" transform="translate(120.049 142.685) rotate(-81.818)" fill="#fff"/>
    <rect id="Rectangle_19" data-name="Rectangle 19" width="3.144" height="8.675" transform="translate(121.698 135.507) rotate(-65.455)" fill="#fff"/>
    <rect id="Rectangle_20" data-name="Rectangle 20" width="3.144" height="8.675" transform="matrix(0.655, -0.756, 0.756, 0.655, 125.302, 129.084)" fill="#fff"/>
    <rect id="Rectangle_21" data-name="Rectangle 21" width="3.144" height="8.675" transform="translate(130.57 123.937) rotate(-32.727)" fill="#fff"/>
    <rect id="Rectangle_22" data-name="Rectangle 22" width="3.144" height="8.675" transform="translate(137.074 120.482) rotate(-16.364)" fill="#fff"/>
    <rect id="Rectangle_23" data-name="Rectangle 23" width="3.144" height="8.675" transform="translate(144.288 119)" fill="#fff"/>
  </g>
</svg>
